# xmcd
#
# Track frame offsets: 
#        150
#        15228
#        26927
#        39440
#        52569
#        64540
#        76604
#        87368
#        99580
#        110194
#        121187
#        131911
#        145499
#        158172
#        170361
#        181280
#        192188
#        204042
#
# Disc length: 2797 seconds
#
# Revision: 0
# Processed by: cddbd v1.5.2PL0 Copyright (c) Steve Scherf et al.
# Submitted via: ExactAudioCopy v0.99pb5
#
DISCID=e10aeb12
DTITLE=Jan and Dean  - Collector's Series - Disc 3-Liberty Years 1963-
DTITLE=64
DYEAR=1900
DGENRE=
TTITLE0=Dead Man's Curve (alternate stereo track only)
TTITLE1=Dead Man's Curve (stereo backing track)
TTITLE2=Dead Man's Curve (sound effects)
TTITLE3=Dead Man's Curve (stereo single backing track)
TTITLE4=Gonna Hustle You (track only mix #1)
TTITLE5=Gonna Hustle You (track only mix #2)
TTITLE6=Gonna Hustle You (early mix)
TTITLE7=Get a Chance With You (stereo backing track)
TTITLE8=Get a Chance With You (alternate version)
TTITLE9=New Girl In School (early mix)
TTITLE10=Rockin' Little Roadster (track only)
TTITLE11=My Mighty GTO (take 13)
TTITLE12=My Mighty GTO (take 16)
TTITLE13=My Mighty GTO (mono single version)
TTITLE14=It's as Easy as 1,2,3 (track only)
TTITLE15=It's as Easy as 1,2,3 (Jan's EQ Mix)
TTITLE16=Hey Little Freshman (take 3)
TTITLE17=Hey Little Freshman (intercut take)
EXTD=
EXTT0=
EXTT1=
EXTT2=
EXTT3=
EXTT4=
EXTT5=
EXTT6=
EXTT7=
EXTT8=
EXTT9=
EXTT10=
EXTT11=
EXTT12=
EXTT13=
EXTT14=
EXTT15=
EXTT16=
EXTT17=
PLAYORDER=
